<svg width="206" height="18" viewBox="0 0 206 18" fill="none" xmlns="http://www.w3.org/2000/svg">
<path d="M0.56 17V0.991999H5.384V13.376H11.792V17H0.56ZM14.2006 17V0.991999H19.0246V17H14.2006ZM29.4179 17.36C27.8659 17.36 26.4899 17.096 25.2899 16.568C24.0899 16.024 23.1459 15.144 22.4579 13.928C21.7699 12.696 21.4259 11.056 21.4259 9.008C21.4259 7.008 21.7699 5.392 22.4579 4.16C23.1459 2.912 24.0899 2.008 25.2899 1.448C26.4899 0.872 27.8579 0.584 29.3939 0.584C30.4659 0.584 31.5059 0.696 32.5139 0.92C33.5219 1.128 34.4899 1.416 35.4179 1.784V6.056C34.3619 5.48 33.4179 5.032 32.5859 4.712C31.7699 4.376 30.9139 4.208 30.0179 4.208C29.2819 4.208 28.6339 4.344 28.0739 4.616C27.5299 4.872 27.1059 5.344 26.8019 6.032C26.4979 6.72 26.3459 7.704 26.3459 8.984C26.3459 10.232 26.5059 11.208 26.8259 11.912C27.1459 12.6 27.5619 13.088 28.0739 13.376C28.6019 13.648 29.1619 13.784 29.7539 13.784C30.1059 13.784 30.4179 13.76 30.6899 13.712C30.9779 13.664 31.2019 13.584 31.3619 13.472V11.384H29.2259V7.784H36.1619V15.44C35.1219 16.048 34.0259 16.52 32.8739 16.856C31.7379 17.192 30.5859 17.36 29.4179 17.36ZM39.2788 17V0.991999H44.0788V7.16H48.8308V0.991999H53.6308V17H48.8308V11H44.0788V17H39.2788ZM59.7877 17V4.592H55.7797V0.991999H68.6917V4.592H64.5877V17H59.7877ZM70.8491 17V0.991999H75.6491V7.16H80.4011V0.991999H85.2011V17H80.4011V11H75.6491V17H70.8491ZM95.678 17.36C94.094 17.36 92.694 17.064 91.478 16.472C90.262 15.88 89.31 14.968 88.622 13.736C87.934 12.504 87.59 10.928 87.59 9.008C87.59 6.256 88.31 4.176 89.75 2.768C91.19 1.344 93.166 0.631999 95.678 0.631999C97.262 0.631999 98.662 0.927999 99.878 1.52C101.094 2.112 102.046 3.024 102.734 4.256C103.422 5.472 103.766 7.048 103.766 8.984C103.766 11.736 103.046 13.824 101.606 15.248C100.182 16.656 98.206 17.36 95.678 17.36ZM95.678 13.52C96.302 13.52 96.846 13.384 97.31 13.112C97.774 12.824 98.134 12.352 98.39 11.696C98.662 11.024 98.798 10.112 98.798 8.96C98.798 7.808 98.662 6.904 98.39 6.248C98.134 5.592 97.774 5.136 97.31 4.88C96.846 4.608 96.302 4.472 95.678 4.472C95.054 4.472 94.51 4.616 94.046 4.904C93.582 5.176 93.214 5.64 92.942 6.296C92.686 6.952 92.558 7.864 92.558 9.032C92.558 10.184 92.686 11.088 92.942 11.744C93.214 12.384 93.582 12.84 94.046 13.112C94.51 13.384 95.054 13.52 95.678 13.52ZM113.993 17.6C111.337 17.6 109.369 17.104 108.089 16.112C106.809 15.12 106.169 13.504 106.169 11.264V0.991999H111.209V10.976C111.209 12 111.401 12.76 111.785 13.256C112.169 13.752 112.817 14 113.729 14C114.513 14 115.129 13.752 115.577 13.256C116.025 12.76 116.249 12 116.249 10.976V0.991999H120.809V11.264C120.809 12.752 120.513 13.968 119.921 14.912C119.329 15.84 118.521 16.52 117.497 16.952C116.473 17.384 115.305 17.6 113.993 17.6ZM129.671 17.36C128.855 17.36 128.095 17.328 127.391 17.264C126.687 17.216 126.031 17.12 125.423 16.976C124.815 16.832 124.247 16.632 123.719 16.376V11.912C124.567 12.568 125.463 13.04 126.407 13.328C127.367 13.616 128.199 13.76 128.903 13.76C129.415 13.76 129.831 13.68 130.151 13.52C130.487 13.344 130.655 13.008 130.655 12.512C130.655 12.192 130.479 11.936 130.127 11.744C129.775 11.536 129.295 11.344 128.687 11.168C128.079 10.992 127.391 10.776 126.623 10.52C126.191 10.376 125.767 10.192 125.351 9.968C124.951 9.744 124.591 9.464 124.271 9.128C123.951 8.776 123.695 8.36 123.503 7.88C123.311 7.384 123.215 6.792 123.215 6.104C123.215 5.352 123.351 4.64 123.623 3.968C123.911 3.296 124.327 2.712 124.871 2.216C125.431 1.704 126.135 1.304 126.983 1.016C127.831 0.728 128.815 0.584 129.935 0.584C130.607 0.584 131.207 0.624 131.735 0.704C132.279 0.768 132.791 0.88 133.271 1.04C133.767 1.184 134.255 1.376 134.735 1.616V6.176C134.383 5.856 133.959 5.552 133.463 5.264C132.983 4.976 132.479 4.736 131.951 4.544C131.439 4.336 130.943 4.216 130.463 4.184C130.095 4.152 129.727 4.168 129.359 4.232C129.007 4.296 128.711 4.432 128.471 4.64C128.247 4.832 128.135 5.12 128.135 5.504C128.135 5.856 128.263 6.136 128.519 6.344C128.775 6.536 129.127 6.704 129.575 6.848C130.039 6.976 130.551 7.12 131.111 7.28C131.799 7.472 132.415 7.688 132.959 7.928C133.519 8.168 133.991 8.464 134.375 8.816C134.775 9.168 135.079 9.6 135.287 10.112C135.495 10.608 135.599 11.208 135.599 11.912C135.599 12.984 135.343 13.936 134.831 14.768C134.335 15.584 133.639 16.224 132.743 16.688C131.863 17.136 130.839 17.36 129.671 17.36ZM137.998 17V0.991999H149.35V4.592H142.822V7.184H148.414V10.784H142.798V13.4H149.35V17H137.998Z" fill="url(#paint0_linear_15_223)"/>
<path d="M158.81 17V0.991999H166.226C167.298 0.991999 168.282 1.12 169.178 1.376C170.074 1.632 170.794 2.088 171.338 2.744C171.898 3.384 172.178 4.296 172.178 5.48C172.178 6.216 171.97 6.84 171.554 7.352C171.138 7.848 170.642 8.24 170.066 8.528C169.49 8.816 168.954 9.024 168.458 9.152L167.906 8.072C168.978 8.072 169.882 8.24 170.618 8.576C171.37 8.896 171.946 9.352 172.346 9.944C172.746 10.536 172.946 11.232 172.946 12.032C172.946 13.168 172.658 14.104 172.082 14.84C171.522 15.576 170.786 16.12 169.874 16.472C168.962 16.824 167.986 17 166.946 17H158.81ZM163.634 13.4H166.49C166.762 13.4 167.01 13.344 167.234 13.232C167.458 13.12 167.634 12.952 167.762 12.728C167.906 12.488 167.978 12.2 167.978 11.864C167.978 11.608 167.938 11.392 167.858 11.216C167.778 11.024 167.666 10.872 167.522 10.76C167.394 10.632 167.234 10.536 167.042 10.472C166.85 10.408 166.642 10.376 166.418 10.376H163.634V13.4ZM163.61 7.016H166.37C166.53 7.016 166.674 6.968 166.802 6.872C166.946 6.76 167.058 6.624 167.138 6.464C167.234 6.288 167.282 6.096 167.282 5.888C167.282 5.424 167.154 5.096 166.898 4.904C166.658 4.696 166.402 4.592 166.13 4.592H163.61V7.016ZM182.725 17.36C181.141 17.36 179.741 17.064 178.525 16.472C177.309 15.88 176.357 14.968 175.669 13.736C174.981 12.504 174.637 10.928 174.637 9.008C174.637 6.256 175.357 4.176 176.797 2.768C178.237 1.344 180.213 0.631999 182.725 0.631999C184.309 0.631999 185.709 0.927999 186.925 1.52C188.141 2.112 189.093 3.024 189.781 4.256C190.469 5.472 190.813 7.048 190.813 8.984C190.813 11.736 190.093 13.824 188.653 15.248C187.229 16.656 185.253 17.36 182.725 17.36ZM182.725 13.52C183.349 13.52 183.893 13.384 184.357 13.112C184.821 12.824 185.181 12.352 185.437 11.696C185.709 11.024 185.845 10.112 185.845 8.96C185.845 7.808 185.709 6.904 185.437 6.248C185.181 5.592 184.821 5.136 184.357 4.88C183.893 4.608 183.349 4.472 182.725 4.472C182.101 4.472 181.557 4.616 181.093 4.904C180.629 5.176 180.261 5.64 179.989 6.296C179.733 6.952 179.605 7.864 179.605 9.032C179.605 10.184 179.733 11.088 179.989 11.744C180.261 12.384 180.629 12.84 181.093 13.112C181.557 13.384 182.101 13.52 182.725 13.52ZM196.264 17V4.592H192.256V0.991999H205.168V4.592H201.064V17H196.264Z" fill="white"/>
<defs>
<linearGradient id="paint0_linear_15_223" x1="-1" y1="8" x2="148.759" y2="8" gradientUnits="userSpaceOnUse">
<stop stop-color="white"/>
<stop offset="1" stop-color="#00B4F1"/>
</linearGradient>
</defs>
</svg>
