<svg width="36" height="36" viewBox="0 0 36 36" fill="none" xmlns="http://www.w3.org/2000/svg">
<circle cx="18" cy="18" r="17.6538" stroke="url(#paint0_linear_15_180)" stroke-width="0.692308"/>
<g clip-path="url(#clip0_15_180)">
<path d="M22.4309 14.9538H21.3232V13.2923C21.3232 11.7439 20.2641 10.4428 18.8309 10.0739V8.30768H17.1693V10.0739C15.7361 10.4428 14.677 11.7439 14.677 13.2923V14.9538H13.5693V16.6154H14.677L14.1232 27.6923H21.877L21.3232 16.6154H22.4309L22.4309 14.9538ZM16.3386 13.2923C16.3386 12.3762 17.0839 11.6307 18.0001 11.6307C18.9163 11.6307 19.6617 12.3762 19.6617 13.2923V14.9538H16.3386V13.2923H16.3386ZM16.3386 16.6154H19.6616L19.8703 20.8293L16.0573 22.2818L16.3386 16.6154ZM15.8699 26.0307L15.9667 24.0943L19.9575 22.5741L20.1304 26.0307H15.8699Z" fill="url(#paint1_linear_15_180)"/>
<path d="M10.5658 10.6829L9.82275 12.169L11.5155 13.0154L9.85766 13.8444L10.6008 15.3304L13.5693 13.8461V12.1846L10.5658 10.6829Z" fill="url(#paint2_linear_15_180)"/>
<path d="M26.1772 12.169L25.4341 10.6829L22.4307 12.1846V13.8461L25.3993 15.3304L26.1423 13.8444L24.4844 13.0154L26.1772 12.169Z" fill="url(#paint3_linear_15_180)"/>
</g>
<defs>
<linearGradient id="paint0_linear_15_180" x1="36" y1="0" x2="0" y2="36" gradientUnits="userSpaceOnUse">
<stop stop-color="white"/>
<stop offset="1" stop-color="#00B4F1"/>
</linearGradient>
<linearGradient id="paint1_linear_15_180" x1="22.4057" y1="8.30768" x2="13.5945" y2="27.6923" gradientUnits="userSpaceOnUse">
<stop stop-color="white"/>
<stop offset="1" stop-color="#00B4F1"/>
</linearGradient>
<linearGradient id="paint2_linear_15_180" x1="21.7889" y1="8.21956" x2="14.2113" y2="27.3398" gradientUnits="userSpaceOnUse">
<stop stop-color="white"/>
<stop offset="1" stop-color="#00B4F1"/>
</linearGradient>
<linearGradient id="paint3_linear_15_180" x1="22.2292" y1="7.779" x2="14.0348" y2="27.7804" gradientUnits="userSpaceOnUse">
<stop stop-color="white"/>
<stop offset="1" stop-color="#00B4F1"/>
</linearGradient>
<clipPath id="clip0_15_180">
<rect width="19.3846" height="19.3846" fill="white" transform="translate(8.30762 8.30768)"/>
</clipPath>
</defs>
</svg>
