<svg width="26" height="26" viewBox="0 0 26 26" fill="none" xmlns="http://www.w3.org/2000/svg">
<path d="M23.125 0.625H2.875C2.27826 0.625 1.70597 0.862053 1.28401 1.28401C0.862053 1.70597 0.625 2.27826 0.625 2.875V23.125C0.625 23.7217 0.862053 24.294 1.28401 24.716C1.70597 25.1379 2.27826 25.375 2.875 25.375H23.125C23.7217 25.375 24.294 25.1379 24.716 24.716C25.1379 24.294 25.375 23.7217 25.375 23.125V2.875C25.375 2.27826 25.1379 1.70597 24.716 1.28401C24.294 0.862053 23.7217 0.625 23.125 0.625ZM2.875 2.875H13V23.125H2.875V2.875Z" fill="#7B7B7B"/>
</svg>
